# xmcd
#
# Track frame offsets: 
#        150
#        12163
#        29073
#        40772
#        58294
#        61102
#        73683
#        76126
#        96883
#        117989
#        131572
#        138096
#        147116
#        165464
#        196309
#        213218
#        258462
#
# Disc length: 3507 seconds
#
# Revision: 1
# Processed by: cddbd v1.5.2PL0 Copyright (c) Steve Scherf et al.
# Submitted via: ExactAudioCopyFreeDBPlugin 1.0
#
DISCID=ed0db111
DTITLE=North Mississippi Allstars - World Boogie is Coming
DYEAR=2013
DGENRE=Blues
TTITLE0=JR
TTITLE1=Goat Meat
TTITLE2=Rollin 'n Tumblin
TTITLE3=Boogie
TTITLE4=Get the Snakes Out the Woods
TTITLE5=Snake Drive
TTITLE6=That Dog After That Rabbit
TTITLE7=Meet Me in the City
TTITLE8=Turn Up Satan
TTITLE9=Shimmy
TTITLE10=My Babe
TTITLE11=Granny, Does Your Dog Bite
TTITLE12=World Boogie
TTITLE13=Goin' to Brownsville
TTITLE14=I'm Leaving
TTITLE15=Jumper on the Line
TTITLE16=Cuttin' Shorty
EXTD=
EXTT0=
EXTT1=
EXTT2=
EXTT3=
EXTT4=
EXTT5=
EXTT6=
EXTT7=
EXTT8=
EXTT9=
EXTT10=
EXTT11=
EXTT12=
EXTT13=
EXTT14=
EXTT15=
EXTT16=
PLAYORDER=
